<?xml version="1.0" encoding="UTF-8" standalone="no"?>
<!DOCTYPE svg PUBLIC "-//W3C//DTD SVG 1.1//EN" "http://www.w3.org/Graphics/SVG/1.1/DTD/svg11.dtd">
<svg width="100%" height="100%" viewBox="0 0 512 512" version="1.1" xmlns="http://www.w3.org/2000/svg" xmlns:xlink="http://www.w3.org/1999/xlink" xml:space="preserve" xmlns:serif="http://www.serif.com/" style="fill-rule:evenodd;clip-rule:evenodd;stroke-linejoin:round;stroke-miterlimit:2;">
    <g transform="matrix(1.247588,0,0,1.247588,-388.157754,-159.261672)">
        <path d="M472.808,395.808C464.841,403.654 457.184,411.312 449.363,418.8C447.127,420.942 446.204,423.24 446.229,426.291C446.333,439.289 446.13,452.292 446.377,465.286C446.462,469.786 445.165,471.458 440.458,471.378C429.184,471.186 429.466,471.389 429.74,483.026C430.077,497.35 429.828,511.687 429.943,526.018C429.972,529.654 428.419,531.056 424.846,531.046C402.681,530.982 380.517,530.987 358.353,531.048C354.648,531.058 353.554,529.396 353.565,525.837C353.664,494.674 353.649,463.51 353.582,432.346C353.577,429.617 354.513,427.58 356.355,425.694C372.541,409.13 388.616,392.458 404.875,375.966C428.271,352.235 451.762,328.596 475.311,305.016C477.744,302.579 478.792,300.118 478.773,296.679C478.651,274.515 478.849,252.348 478.613,230.186C478.558,225.07 480.276,223.562 485.243,223.669C495.647,223.894 495.641,223.665 495.619,213.392C495.597,203.06 495.645,192.727 495.576,182.395C495.536,176.414 494.453,175.325 488.609,175.293C476.443,175.228 464.276,175.355 452.113,175.151C447.907,175.081 446.112,176.335 446.19,180.826C446.409,193.487 446.396,206.157 446.189,218.819C446.122,222.927 447.826,223.864 451.539,223.884C463.215,223.945 463.203,224.058 463.191,235.628C463.18,246.96 463.103,258.293 463.257,269.624C463.303,273.048 462.298,275.58 459.785,277.975C425.646,310.51 392.221,343.777 358.661,376.907C357.522,378.031 356.613,379.585 354.604,379.66C352.998,378.215 353.678,376.269 353.677,374.565C353.639,297.072 353.642,219.579 353.648,142.086C353.648,134.642 353.673,134.613 361.41,134.611C435.403,134.597 509.403,135.191 583.386,134.348C623.934,133.887 662.303,164.39 669.236,207.593C675.618,247.359 661.018,278.613 629.405,302.562C624.282,306.442 618.959,310.057 613.851,313.707C614.722,316.567 616.941,316.802 618.675,317.581C657.105,334.845 681.767,363.331 688.554,405.452C693.813,438.091 684.644,467.189 663.376,492.293C646.038,512.758 623.84,525.165 597.375,529.628C591.492,530.62 585.443,530.999 579.468,531.022C548.138,531.139 516.808,531.055 485.477,531.033C478.812,531.028 478.713,530.933 478.706,524.396C478.689,508.731 478.531,493.063 478.775,477.402C478.852,472.499 477.084,471.115 472.384,471.194C460.614,471.393 461.779,472.744 461.741,460.574C461.713,451.575 461.849,442.574 461.674,433.578C461.608,430.156 462.62,427.647 465.105,425.217C486.31,404.481 507.419,383.646 528.487,362.77C530.657,360.62 532.922,359.607 535.995,359.648C545.826,359.78 555.662,359.582 565.491,359.757C569.381,359.826 570.823,358.379 570.781,354.501C570.647,342.004 570.654,329.503 570.803,317.006C570.85,313.09 569.005,311.471 565.438,311.455C552.44,311.398 539.441,311.431 526.443,311.404C522.816,311.396 522.046,313.611 522.054,316.662C522.077,325.161 521.938,333.661 522.047,342.159C522.091,345.566 520.986,348.147 518.535,350.553C503.313,365.491 488.203,380.542 472.808,395.808Z" style="fill-rule:nonzero;"/>
    </g>
</svg>
