<?xml version="1.0" encoding="UTF-8" standalone="no"?><!DOCTYPE svg PUBLIC "-//W3C//DTD SVG 1.1//EN" "http://www.w3.org/Graphics/SVG/1.1/DTD/svg11.dtd"><svg width="100%" height="100%" viewBox="0 0 4267 834" version="1.1" xmlns="http://www.w3.org/2000/svg" xmlns:xlink="http://www.w3.org/1999/xlink" xml:space="preserve" xmlns:serif="http://www.serif.com/" style="fill-rule:evenodd;clip-rule:evenodd;stroke-linejoin:round;stroke-miterlimit:2;"><path d="M61.931,379.8c4.628,-30.222 26.293,-24.006 42.872,-24.123c96.072,-0.678 192.151,-0.334 288.228,-0.53c15.595,-0.032 31.349,0.19 46.75,-1.83c37.465,-4.917 53.975,-24.246 55.582,-62.845c1.896,-45.555 -11.537,-65.75 -51.046,-73.534c-13.974,-2.753 -28.648,-2.623 -43.005,-2.65c-99.679,-0.191 -199.374,-1.036 -299.03,0.5c-31.705,0.489 -41.881,-10.655 -41.384,-41.861c1.023,-64.33 -0.391,-64.328 64.886,-64.338c99.68,-0.015 199.36,0.085 299.039,-0.183c38.855,-0.104 76.349,5.535 112.581,20.41c39.381,16.168 67.225,43.455 76.558,84.754c15.989,70.751 14.952,138.794 -50.875,193.679c59.09,29.999 80.311,78.049 79.771,139.601c-0.95,108.107 -52.696,171.503 -161.458,176.369c-130.65,5.846 -261.727,2.009 -392.617,2.754c-26.817,0.152 -27.116,-17.544 -27.102,-36.561c0.076,-102.081 0.054,-204.162 0.252,-309.611m200.28,84.94c-10.772,0.017 -21.667,1.09 -32.293,-0.147c-33.027,-3.844 -45.356,10.027 -42.481,42.986c2.383,27.326 1.273,55.035 0.45,82.537c-0.618,20.672 6.318,30.869 28.693,30.635c74.199,-0.775 148.439,0.842 222.605,-0.908c53.927,-1.272 77.375,-26.96 76.911,-78.03c-0.472,-51.921 -22.954,-75.018 -78.014,-76.37c-56.223,-1.38 -112.499,-0.563 -175.872,-0.704Z" style="fill-rule:nonzero;"/><path d="M3782.078,233.719c13.36,-32.518 27.12,-61.982 37.634,-92.561c8.958,-26.055 25.151,-33.29 51.558,-33.238c117.401,0.231 117.831,-0.624 162.256,108.553c60.589,148.901 120.598,298.038 180.407,447.254c6.971,17.393 16.791,34.514 14.237,58.235c-37.485,7.757 -75.505,4.837 -113.144,2.595c-17.458,-1.04 -19.418,-19.111 -24.52,-32.218c-53.099,-136.395 -106.023,-272.858 -159.296,-409.185c-4.674,-11.962 -7.017,-25.482 -18.474,-34.873c-14.058,6.273 -15.002,20.922 -19.557,32.274c-54.951,136.953 -109.905,273.912 -163.26,411.489c-9.792,25.249 -22.91,37.126 -50.168,34.276c-29.439,-3.078 -59.611,4.124 -95.988,-6.634c66.281,-162.386 131.795,-322.891 198.315,-485.968Z" style="fill-rule:nonzero;"/><path d="M2908.632,329.365c99.915,130.039 198.253,258.034 303.732,395.324c-53.849,0 -96.182,0.443 -138.496,-0.281c-12.035,-0.206 -17.528,-11.602 -24.044,-20.039c-40.357,-52.247 -80.474,-104.679 -120.977,-156.811c-7.908,-10.179 -13.446,-22.971 -27.732,-28.266c-17.759,6.829 -25.926,23.689 -36.588,37.547c-36.595,47.565 -73.083,95.235 -108.419,143.734c-13.334,18.302 -28.77,26.596 -51.553,25.653c-33.343,-1.379 -66.785,-0.354 -98.553,-0.354c-8.527,-20.146 4.422,-28.724 11.824,-38.521c60.778,-80.447 121.222,-161.171 183.594,-240.373c18.552,-23.557 21.275,-39.896 0.888,-64.883c-62.209,-76.244 -121.58,-154.808 -181.749,-232.706c-7.7,-9.969 -19.407,-18.443 -16.868,-37.91c40.712,-5.572 82.227,-3.382 123.458,-1.493c18.61,0.853 26.394,19.483 36.489,32.357c48.143,61.395 95.67,123.272 144.993,187.022Z" style="fill-rule:nonzero;"/><path d="M1085.537,471.272c-0.013,-108.1 1.066,-212.613 -0.66,-317.08c-0.552,-33.4 8.02,-47.356 44.043,-46.105c96.897,3.366 82.641,-12.47 83.32,85.043c0.87,124.908 0.216,249.827 0.224,374.74c0.003,47.037 0.011,47.218 48.331,47.273c90.082,0.104 180.164,-0.073 270.246,-0.035c43.466,0.018 46.266,2.976 46.585,47.608c0.035,4.804 -0.006,9.609 -0.055,14.413c-0.484,47.88 -1.122,48.643 -48.168,48.688c-129.719,0.123 -259.437,0.191 -389.156,0.165c-54.587,-0.011 -54.695,-0.143 -54.774,-56.529c-0.091,-64.86 0.035,-129.719 0.061,-198.182Z" style="fill-rule:nonzero;"/><path d="M2149.089,528.932c-0.034,57.551 -0.721,111.51 0.21,165.441c0.392,22.732 -7.301,32.35 -31.061,31.834c-112.2,-2.441 -93.907,14.74 -94.702,-91.54c-1.201,-160.635 0.494,-321.293 -0.968,-481.923c-0.316,-34.714 11.118,-45.483 45.457,-44.814c81.058,1.579 81.101,0.075 81.101,82.922c-0,111.492 -0.023,222.984 -0.037,338.08Z" style="fill-rule:nonzero;"/><path d="M2981.012,217.532c14.055,-18.071 25.737,-34.834 39.276,-49.93c17.287,-19.275 25.289,-51.887 52.279,-56.345c41.555,-6.862 84.551,-4.724 137.4,0.7c-68.683,88.55 -131.747,169.855 -199.833,257.634c-23.977,-30.855 -45.082,-57.335 -65.355,-84.439c-8.06,-10.775 -1.196,-20.365 5.663,-29.075c9.617,-12.211 19.343,-24.335 30.57,-38.546Z" style="fill-rule:nonzero;"/></svg>