<?xml version="1.0" encoding="UTF-8" standalone="no"?><!DOCTYPE svg PUBLIC "-//W3C//DTD SVG 1.1//EN" "http://www.w3.org/Graphics/SVG/1.1/DTD/svg11.dtd"><svg width="100%" height="100%" viewBox="0 0 1067 1067" version="1.1" xmlns="http://www.w3.org/2000/svg" xmlns:xlink="http://www.w3.org/1999/xlink" xml:space="preserve" xmlns:serif="http://www.serif.com/" style="fill-rule:evenodd;clip-rule:evenodd;stroke-linejoin:round;stroke-miterlimit:2;"><path d="M1042.684,443.067c0.005,122.821 0.24,243.009 -0.048,363.196c-0.291,121.385 -97.915,217.12 -222.754,217.467c-191.69,0.534 -383.384,0.546 -575.074,-0.03c-122.887,-0.37 -220.656,-96.362 -220.943,-216.544c-0.438,-183.351 -0.452,-366.705 0.054,-550.056c0.341,-123.673 99.954,-219.705 226.911,-219.793c187.192,-0.129 374.384,-0.394 561.575,0.002c116.73,0.247 206.058,71.379 227.37,182.302c7.966,41.463 2.014,84.024 2.785,126.077c0.579,31.573 0.122,63.163 0.126,97.379m-777.897,-165.788l0,304.601c17.031,-5.226 23.297,-14.257 30.894,-21.467c38.674,-36.708 76.828,-73.944 115.837,-110.309c15.652,-14.591 33.618,-26.583 29.891,-52.011c-2.968,-20.248 7.444,-44.501 -21.945,-55.431c-6.432,-2.392 -5.302,-12.435 -5.332,-19.439c-0.06,-14.033 0.8,-28.1 0.061,-42.092c-0.998,-18.891 7.221,-26.279 26.754,-27.194c66.082,-3.093 66.599,-3.247 65.929,60.511c-0.115,10.953 4.525,26.282 -8.51,30.81c-20.07,6.971 -18.33,20.917 -18.165,35.851c0.194,17.541 -1.611,35.289 0.541,52.581c3.524,28.31 -8.887,47.432 -29.163,66.339c-58.468,54.521 -117.874,108.213 -171.679,167.315c-7.156,7.861 -15.06,14.99 -15.022,26.878c0.144,44.732 -0.044,89.465 -0.048,134.198c-0.001,8.295 1.166,17.356 11.648,17.721c34.063,1.187 71.8,10.433 101.012,-3.546c21.434,-10.257 5.737,-45.071 8.792,-68.718c0.335,-2.594 0.112,-5.257 0.144,-7.888c0.102,-8.574 2.59,-16.094 12.211,-18.01c14.254,-2.84 16.748,-13.203 14.799,-23.94c-8.037,-44.267 12.769,-74.851 46.045,-101.688c20.71,-16.703 37.282,-38.292 58.048,-54.914c20.052,-16.05 29.363,-34.204 25.749,-59.119c-3.176,-21.894 7.473,-29.355 29.431,-28.976c75.95,1.311 62.65,-7.468 65.005,62.883c0.743,22.178 -7.815,29.576 -29.854,28.583c-15.586,-0.703 -33.14,-5.503 -46.457,7.211c-34.066,32.524 -68.334,64.893 -101.16,98.584c-14.462,14.844 -12.183,64.544 2.662,69.132c18.23,5.634 17.467,17.347 17.431,30.628c-0.038,14.034 0.783,28.138 -0.37,42.085c-1.758,21.272 6.333,29.758 29.101,29.129c47.652,-1.317 95.369,-0.294 143.058,-0.475c84.598,-0.32 157.139,-54.584 176.665,-131.94c20.91,-82.837 -15.123,-162.849 -90.988,-203.145c-12.177,-6.468 -26.519,-9.984 -37.929,-22.412c16.057,-12.396 31.282,-22.908 45.047,-34.999c48.598,-42.686 64.772,-107.888 41.788,-165.365c-22.308,-55.789 -72.175,-86.562 -140.678,-86.603c-103.478,-0.062 -206.955,0.061 -310.433,-0.046c-70.862,-0.074 -70.862,-0.189 -70.808,74.686Z" style="fill-rule:nonzero;"/></svg>