<?xml version="1.0" encoding="UTF-8" standalone="no"?><!DOCTYPE svg PUBLIC "-//W3C//DTD SVG 1.1//EN" "http://www.w3.org/Graphics/SVG/1.1/DTD/svg11.dtd"><svg width="100%" height="100%" viewBox="0 0 4167 1875" version="1.1" xmlns="http://www.w3.org/2000/svg" xmlns:xlink="http://www.w3.org/1999/xlink" xml:space="preserve" xmlns:serif="http://www.serif.com/" style="fill-rule:evenodd;clip-rule:evenodd;stroke-linejoin:round;stroke-miterlimit:2;"><path d="M561.7,1190.867c-33.195,32.691 -65.1,64.601 -97.685,95.8c-9.32,8.923 -13.162,18.498 -13.06,31.214c0.434,54.158 -0.411,108.334 0.616,162.477c0.356,18.749 -5.051,25.718 -24.662,25.384c-46.975,-0.8 -45.8,0.046 -44.659,48.532c1.404,59.684 0.367,119.422 0.845,179.133c0.121,15.152 -6.347,20.993 -21.239,20.95c-92.351,-0.266 -184.703,-0.244 -277.054,0.008c-15.436,0.042 -19.995,-6.88 -19.948,-21.709c0.413,-129.848 0.351,-259.698 0.072,-389.546c-0.024,-11.373 3.875,-19.86 11.554,-27.718c67.441,-69.015 134.421,-138.484 202.166,-207.199c97.484,-98.88 195.362,-197.374 293.481,-295.625c10.139,-10.153 14.507,-20.407 14.428,-34.739c-0.509,-92.35 0.315,-184.71 -0.669,-277.052c-0.227,-21.318 6.93,-27.603 27.626,-27.155c43.35,0.938 43.323,-0.018 43.232,-42.822c-0.092,-43.051 0.109,-86.104 -0.178,-129.154c-0.166,-24.921 -4.678,-29.458 -29.03,-29.59c-50.689,-0.273 -101.387,0.259 -152.064,-0.592c-17.527,-0.294 -25.006,4.933 -24.682,23.643c0.913,52.757 0.862,105.549 -0.003,158.307c-0.281,17.114 6.821,21.021 22.29,21.102c48.651,0.256 48.6,0.724 48.553,48.932c-0.046,47.218 -0.368,94.441 0.272,141.65c0.193,14.268 -3.994,24.819 -14.464,34.798c-142.247,135.565 -281.518,274.177 -421.349,412.217c-4.746,4.685 -8.534,11.157 -16.906,11.47c-6.69,-6.019 -3.858,-14.129 -3.862,-21.229c-0.156,-322.887 -0.146,-645.773 -0.121,-968.66c0.002,-31.016 0.105,-31.14 32.341,-31.146c308.305,-0.061 616.638,2.415 924.903,-1.095c168.947,-1.923 328.82,125.173 357.706,305.184c26.59,165.695 -34.241,295.92 -165.964,395.706c-21.343,16.168 -43.524,31.23 -64.808,46.438c3.63,11.915 12.876,12.897 20.101,16.142c160.125,71.931 262.884,190.622 291.163,366.126c21.913,135.997 -16.291,257.239 -104.907,361.84c-72.242,85.272 -164.735,136.965 -275.006,155.562c-24.514,4.134 -49.715,5.714 -74.61,5.807c-130.541,0.49 -261.086,0.138 -391.629,0.045c-27.773,-0.02 -28.184,-0.417 -28.214,-27.651c-0.072,-65.272 -0.729,-130.554 0.289,-195.809c0.319,-20.428 -7.046,-26.196 -26.629,-25.865c-49.042,0.828 -44.19,6.456 -44.346,-44.252c-0.116,-37.496 0.448,-75.002 -0.279,-112.484c-0.277,-14.258 3.94,-24.71 14.294,-34.835c88.354,-86.401 176.308,-173.213 264.091,-260.197c9.043,-8.961 18.48,-13.181 31.286,-13.009c40.961,0.551 81.943,-0.276 122.898,0.454c16.211,0.289 22.217,-5.74 22.043,-21.901c-0.559,-52.072 -0.529,-104.158 0.092,-156.229c0.195,-16.315 -7.491,-23.063 -22.356,-23.129c-54.159,-0.239 -108.32,-0.102 -162.48,-0.214c-15.112,-0.031 -18.32,9.196 -18.286,21.911c0.095,35.412 -0.482,70.83 -0.029,106.235c0.182,14.196 -4.42,24.951 -14.635,34.976c-63.422,62.242 -126.383,124.955 -190.528,188.563Z" style="fill-rule:nonzero;"/><path d="M3761.495,1040.484c10.609,-47.18 21.537,-89.926 29.887,-134.292c7.114,-37.802 19.973,-48.3 40.944,-48.224c93.233,0.336 93.575,-0.905 128.854,157.495c48.116,216.034 95.772,432.41 143.269,648.901c5.536,25.235 13.335,50.075 11.306,84.49c-29.768,11.254 -59.962,7.017 -89.852,3.765c-13.864,-1.509 -15.421,-27.727 -19.473,-46.743c-42.168,-197.89 -84.198,-395.877 -126.504,-593.668c-3.712,-17.354 -5.572,-36.971 -14.671,-50.595c-11.164,9.101 -11.914,30.354 -15.531,46.825c-43.639,198.698 -87.281,397.406 -129.652,597.011c-7.776,36.632 -18.193,53.865 -39.84,49.729c-23.379,-4.466 -47.34,5.983 -76.229,-9.625c52.637,-235.599 104.664,-468.468 157.491,-705.069Z" style="fill-rule:nonzero;"/><path d="M3067.853,1179.251c79.347,188.668 157.441,374.37 241.206,573.557c-42.764,0 -76.383,0.643 -109.986,-0.408c-9.557,-0.299 -13.92,-16.833 -19.094,-29.073c-32.049,-75.802 -63.908,-151.874 -96.073,-227.511c-6.28,-14.768 -10.678,-33.327 -22.023,-41.01c-14.103,9.908 -20.589,34.37 -29.056,54.475c-29.062,69.009 -58.039,138.172 -86.1,208.537c-10.589,26.553 -22.847,38.586 -40.94,37.219c-26.479,-2 -53.037,-0.514 -78.265,-0.514c-6.772,-29.229 3.512,-41.674 9.39,-55.889c48.267,-116.717 96.268,-233.836 145.8,-348.747c14.733,-34.178 16.896,-57.883 0.705,-94.136c-49.403,-110.62 -96.552,-224.604 -144.335,-337.623c-6.115,-14.463 -15.412,-26.758 -13.395,-55.001c32.331,-8.084 65.3,-4.907 98.043,-2.166c14.779,1.237 20.96,28.267 28.978,46.946c38.233,89.075 75.976,178.85 115.145,271.341Z" style="fill-rule:nonzero;"/><path d="M1620.054,1385.137c-0.01,-156.837 0.846,-308.47 -0.524,-460.037c-0.438,-48.458 6.369,-68.706 34.977,-66.891c76.95,4.883 65.629,-18.092 66.168,123.384c0.691,181.223 0.171,362.462 0.178,543.693c0.003,68.244 0.008,68.506 38.382,68.586c71.538,0.151 143.076,-0.105 214.614,-0.05c34.518,0.026 36.742,4.317 36.995,69.073c0.027,6.97 -0.005,13.942 -0.043,20.911c-0.385,69.467 -0.891,70.574 -38.252,70.639c-103.015,0.179 -206.03,0.278 -309.045,0.24c-43.35,-0.016 -43.436,-0.208 -43.498,-82.015c-0.072,-94.102 0.028,-188.203 0.049,-287.533Z" style="fill-rule:nonzero;"/><path d="M2464.667,1468.794c-0.027,83.498 -0.572,161.785 0.167,240.03c0.311,32.981 -5.798,46.936 -24.667,46.186c-89.103,-3.542 -74.576,21.386 -75.207,-132.811c-0.953,-233.057 0.393,-466.149 -0.769,-699.2c-0.251,-50.365 8.829,-65.99 36.099,-65.019c64.372,2.291 64.406,0.109 64.406,120.308c-0,161.759 -0.018,323.518 -0.029,490.505Z" style="fill-rule:nonzero;"/><path d="M3125.333,1016.998c11.161,-26.219 20.439,-50.539 31.191,-72.441c13.728,-27.966 20.083,-75.281 41.517,-81.749c33.001,-9.955 67.146,-6.854 109.115,1.015c-54.544,128.473 -104.626,246.434 -158.696,373.79c-19.041,-44.766 -35.802,-83.185 -51.901,-122.508c-6.401,-15.633 -0.95,-29.547 4.498,-42.183c7.637,-17.716 15.361,-35.307 24.277,-55.924Z" style="fill-rule:nonzero;"/></svg>