<?xml version="1.0" encoding="UTF-8" standalone="no"?>
<!DOCTYPE svg PUBLIC "-//W3C//DTD SVG 1.1//EN" "http://www.w3.org/Graphics/SVG/1.1/DTD/svg11.dtd">
<svg width="100%" height="100%" viewBox="0 0 512 512" version="1.1" xmlns="http://www.w3.org/2000/svg" xmlns:xlink="http://www.w3.org/1999/xlink" xml:space="preserve" xmlns:serif="http://www.serif.com/" style="fill-rule:evenodd;clip-rule:evenodd;stroke-linejoin:round;stroke-miterlimit:2;">
    <g transform="matrix(0.872027,0,0,0.872027,-191.383884,-96.807754)">
        <path d="M472.808,395.808C464.841,403.654 457.184,411.312 449.363,418.8C447.127,420.942 446.204,423.24 446.229,426.291C446.333,439.289 446.13,452.292 446.377,465.286C446.462,469.786 445.165,471.458 440.458,471.378C429.184,471.186 429.466,471.389 429.74,483.026C430.077,497.35 429.828,511.687 429.943,526.018C429.972,529.654 428.419,531.056 424.846,531.046C402.681,530.982 380.517,530.987 358.353,531.048C354.648,531.058 353.554,529.396 353.565,525.837C353.664,494.674 353.649,463.51 353.582,432.346C353.577,429.617 354.513,427.58 356.355,425.694C372.541,409.13 388.616,392.458 404.875,375.966C428.271,352.235 451.762,328.596 475.311,305.016C477.744,302.579 478.792,300.118 478.773,296.679C478.651,274.515 478.849,252.348 478.613,230.186C478.558,225.07 480.276,223.562 485.243,223.669C495.647,223.894 495.641,223.665 495.619,213.392C495.597,203.06 495.645,192.727 495.576,182.395C495.536,176.414 494.453,175.325 488.609,175.293C476.443,175.228 464.276,175.355 452.113,175.151C447.907,175.081 446.112,176.335 446.19,180.826C446.409,193.487 446.396,206.157 446.189,218.819C446.122,222.927 447.826,223.864 451.539,223.884C463.215,223.945 463.203,224.058 463.191,235.628C463.18,246.96 463.103,258.293 463.257,269.624C463.303,273.048 462.298,275.58 459.785,277.975C425.646,310.51 392.221,343.777 358.661,376.907C357.522,378.031 356.613,379.585 354.604,379.66C352.998,378.215 353.678,376.269 353.677,374.565C353.639,297.072 353.642,219.579 353.648,142.086C353.648,134.642 353.673,134.613 361.41,134.611C435.403,134.597 509.403,135.191 583.386,134.348C623.934,133.887 662.303,164.39 669.236,207.593C675.618,247.359 661.018,278.613 629.405,302.562C624.282,306.442 618.959,310.057 613.851,313.707C614.722,316.567 616.941,316.802 618.675,317.581C657.105,334.845 681.767,363.331 688.554,405.452C693.813,438.091 684.644,467.189 663.376,492.293C646.038,512.758 623.84,525.165 597.375,529.628C591.492,530.62 585.443,530.999 579.468,531.022C548.138,531.139 516.808,531.055 485.477,531.033C478.812,531.028 478.713,530.933 478.706,524.396C478.689,508.731 478.531,493.063 478.775,477.402C478.852,472.499 477.084,471.115 472.384,471.194C460.614,471.393 461.779,472.744 461.741,460.574C461.713,451.575 461.849,442.574 461.674,433.578C461.608,430.156 462.62,427.647 465.105,425.217C486.31,404.481 507.419,383.646 528.487,362.77C530.657,360.62 532.922,359.607 535.995,359.648C545.826,359.78 555.662,359.582 565.491,359.757C569.381,359.826 570.823,358.379 570.781,354.501C570.647,342.004 570.654,329.503 570.803,317.006C570.85,313.09 569.005,311.471 565.438,311.455C552.44,311.398 539.441,311.431 526.443,311.404C522.816,311.396 522.046,313.611 522.054,316.662C522.077,325.161 521.938,333.661 522.047,342.159C522.091,345.566 520.986,348.147 518.535,350.553C503.313,365.491 488.203,380.542 472.808,395.808Z" style="fill-rule:nonzero;"/>
    </g>
    <g transform="matrix(0.872027,0,0,0.872027,-191.383884,-96.807754)">
        <path d="M223.757,637.309C224.399,633.116 227.405,633.978 229.705,633.962C243.035,633.868 256.366,633.915 269.696,633.888C271.859,633.884 274.045,633.915 276.182,633.634C281.38,632.952 283.671,630.27 283.894,624.915C284.157,618.594 282.293,615.792 276.811,614.712C274.872,614.33 272.836,614.348 270.844,614.345C257.014,614.318 243.182,614.201 229.356,614.414C224.957,614.482 223.545,612.936 223.614,608.606C223.756,599.68 223.559,599.681 232.616,599.679C246.446,599.677 260.276,599.691 274.106,599.654C279.497,599.639 284.7,600.422 289.727,602.486C295.19,604.729 299.054,608.515 300.349,614.245C302.567,624.061 302.423,633.502 293.29,641.117C301.488,645.279 304.433,651.946 304.358,660.486C304.226,675.485 297.046,684.281 281.956,684.956C263.829,685.767 245.643,685.235 227.482,685.338C223.762,685.359 223.72,682.904 223.722,680.266C223.733,666.103 223.73,651.939 223.757,637.309M251.545,649.094C250.05,649.096 248.539,649.245 247.065,649.073C242.482,648.54 240.772,650.465 241.17,655.037C241.501,658.829 241.347,662.673 241.233,666.489C241.147,669.357 242.109,670.772 245.214,670.74C255.509,670.632 265.809,670.856 276.099,670.614C283.581,670.437 286.835,666.873 286.77,659.787C286.705,652.583 283.586,649.379 275.946,649.191C268.146,649 260.338,649.113 251.545,649.094Z" style="fill-rule:nonzero;"/>
    </g>
    <g transform="matrix(0.872027,0,0,0.872027,-191.383884,-96.807754)">
        <path d="M739.91,617.041C741.763,612.529 743.672,608.441 745.131,604.198C746.374,600.583 748.621,599.58 752.285,599.587C768.573,599.619 768.633,599.5 774.797,614.648C783.203,635.307 791.529,655.999 799.827,676.702C800.795,679.116 802.157,681.491 801.803,684.782C796.602,685.858 791.327,685.453 786.105,685.142C783.682,684.998 783.41,682.491 782.703,680.672C775.335,661.748 767.992,642.814 760.601,623.9C759.953,622.24 759.627,620.364 758.038,619.061C756.087,619.932 755.956,621.964 755.324,623.539C747.7,642.541 740.076,661.543 732.673,680.631C731.314,684.134 729.494,685.782 725.712,685.387C721.628,684.96 717.442,685.959 712.394,684.466C721.591,661.936 730.68,639.667 739.91,617.041Z" style="fill-rule:nonzero;"/>
    </g>
    <g transform="matrix(0.872027,0,0,0.872027,-191.383884,-96.807754)">
        <path d="M618.723,630.311C632.586,648.353 646.23,666.112 660.864,685.16C653.393,685.16 647.52,685.222 641.649,685.121C639.979,685.093 639.217,683.512 638.313,682.341C632.713,675.092 627.147,667.817 621.528,660.584C620.431,659.172 619.662,657.397 617.68,656.663C615.216,657.61 614.083,659.949 612.604,661.872C607.526,668.471 602.464,675.085 597.561,681.814C595.711,684.354 593.57,685.504 590.409,685.374C585.782,685.182 581.142,685.325 576.735,685.325C575.552,682.529 577.348,681.339 578.375,679.98C586.808,668.818 595.194,657.618 603.848,646.629C606.422,643.361 606.8,641.094 603.971,637.627C595.34,627.049 587.103,616.148 578.754,605.34C577.686,603.957 576.062,602.781 576.414,600.08C582.063,599.307 587.823,599.611 593.543,599.873C596.125,599.992 597.205,602.576 598.606,604.363C605.286,612.881 611.88,621.466 618.723,630.311Z" style="fill-rule:nonzero;"/>
    </g>
    <g transform="matrix(0.872027,0,0,0.872027,-191.383884,-96.807754)">
        <path d="M365.777,650C365.776,635.002 365.925,620.501 365.686,606.007C365.609,601.373 366.799,599.436 371.797,599.61C385.241,600.077 383.263,597.88 383.357,611.409C383.478,628.74 383.387,646.071 383.388,663.403C383.389,669.929 383.39,669.954 390.094,669.961C402.592,669.976 415.091,669.951 427.589,669.957C433.62,669.959 434.008,670.369 434.053,676.562C434.057,677.229 434.052,677.895 434.045,678.562C433.978,685.205 433.889,685.311 427.362,685.317C409.364,685.334 391.366,685.344 373.369,685.34C365.795,685.338 365.78,685.32 365.769,677.497C365.756,668.498 365.774,659.499 365.777,650Z" style="fill-rule:nonzero;"/>
    </g>
    <g transform="matrix(0.872027,0,0,0.872027,-191.383884,-96.807754)">
        <path d="M513.34,658C513.336,665.985 513.24,673.472 513.369,680.954C513.424,684.108 512.357,685.443 509.06,685.371C493.493,685.032 496.031,687.416 495.92,672.67C495.754,650.383 495.989,628.092 495.786,605.806C495.742,600.989 497.329,599.495 502.093,599.588C513.339,599.807 513.345,599.598 513.345,611.093C513.345,626.562 513.342,642.031 513.34,658Z" style="fill-rule:nonzero;"/>
    </g>
    <g transform="matrix(0.872027,0,0,0.872027,-191.383884,-96.807754)">
        <path d="M628.766,614.795C630.716,612.288 632.336,609.962 634.215,607.867C636.613,605.193 637.724,600.668 641.468,600.05C647.234,599.098 653.199,599.394 660.532,600.147C651.002,612.433 642.253,623.713 632.806,635.892C629.479,631.611 626.551,627.937 623.738,624.177C622.62,622.682 623.572,621.351 624.524,620.143C625.858,618.449 627.208,616.766 628.766,614.795Z" style="fill-rule:nonzero;"/>
    </g>
</svg>
